<svg xmlns="http://www.w3.org/2000/svg" width="152" height="48" viewBox="0 0 152 48">
    <g fill="none" fill-rule="evenodd">
        <g>
            <g>
                <path fill="#F6F6F0" d="M2 0h148c1.105 0 2 .895 2 2v44c0 1.105-.895 2-2 2H2c-1.105 0-2-.895-2-2V2C0 .895.895 0 2 0z" transform="translate(-1191 -76) translate(1191 76)"/>
                <path stroke="#2C312B" d="M2 0h148c1.105 0 2 .895 2 2v44c0 1.105-.895 2-2 2H2c-1.105 0-2-.895-2-2V2C0 .895.895 0 2 0z" transform="translate(-1191 -76) translate(1191 76)"/>
                <text fill="#2C312B" font-family="Biennale-Regular, Biennale" font-size="12" letter-spacing="2.571" transform="translate(-1191 -76) translate(1191 76)">
                    <tspan x="41.296" y="26">KONTAKT</tspan>
                </text>
            </g>
        </g>
    </g>
</svg>
