<svg xmlns="http://www.w3.org/2000/svg" width="54" height="120" viewBox="0 0 54 120">
    <g fill="none" fill-rule="evenodd">
        <g>
            <g>
                <g>
                    <path d="M0 0L54 0 54 120 0 120z" transform="translate(-1222 -4672) translate(0 4431) translate(1222 241)"/>
                    <g>
                        <path fill="#FFF" d="M35.666 9.627L30 3.573c-.024-.026-.024-.066 0-.092l.402-.429c.025-.027.067-.028.094-.003l.003.003L37 9.999l-6.5 6.949c-.025.027-.067.028-.094.003l-.003-.003-.402-.43c-.024-.025-.024-.065 0-.09l5.665-6.056h-12.6c-.036 0-.066-.03-.066-.066v-.612c0-.037.03-.067.067-.067h12.599z" transform="translate(-1222 -4672) translate(0 4431) translate(1222 241) rotate(-90 31.5 14.5)"/>
                    </g>
                    <text fill="#FFF" font-family="Biennale-Regular, Biennale" font-size="12" letter-spacing="2.571" transform="translate(-1222 -4672) translate(0 4431) translate(1222 241) rotate(90 27 79)">
                        <tspan x="-5.56" y="81">POWRÓT</tspan>
                    </text>
                </g>
            </g>
        </g>
    </g>
</svg>
