<svg xmlns="http://www.w3.org/2000/svg" width="16" height="16" viewBox="0 0 16 16">
    <g fill="none" fill-rule="evenodd">
        <g>
            <g>
                <g>
                    <g>
                        <path d="M0 0H16V16H0z" transform="translate(-353 -5129) translate(0 4431) translate(341 686) translate(12 12)"/>
                        <path fill="#396769" d="M5.246 1.418c-1.085.05-2.026.315-2.785 1.071-.762.76-1.024 1.705-1.073 2.779-.03.67-.21 5.734.308 7.062.349.896 1.036 1.585 1.94 1.935.422.164.904.275 1.61.308 5.908.267 8.097.121 9.02-2.243.165-.42.277-.902.309-1.606.27-5.923-.044-7.207-1.074-8.235-.816-.814-1.777-1.369-8.255-1.07m.055 11.963c-.647-.03-.998-.137-1.232-.228-.59-.229-1.032-.67-1.26-1.255-.393-1.01-.263-5.802-.227-6.578.034-.76.188-1.454.724-1.99.663-.661 1.52-.986 7.356-.722.762.034 1.457.188 1.995.722.663.662.992 1.526.724 7.339-.03.645-.137.995-.228 1.229-.6 1.538-1.982 1.752-7.852 1.483m5.425-8.919c0 .438.357.794.796.794.44 0 .797-.356.797-.794 0-.438-.357-.794-.797-.794-.44 0-.796.356-.796.794M4.575 7.995c0 1.877 1.525 3.398 3.406 3.398 1.882 0 3.407-1.521 3.407-3.398 0-1.876-1.525-3.397-3.407-3.397-1.88 0-3.406 1.52-3.406 3.397m1.195 0c0-1.217.99-2.205 2.211-2.205 1.222 0 2.211.988 2.211 2.205 0 1.218-.99 2.206-2.21 2.206-1.222 0-2.212-.988-2.212-2.206" transform="translate(-353 -5129) translate(0 4431) translate(341 686) translate(12 12)"/>
                    </g>
                </g>
            </g>
        </g>
    </g>
</svg>
