<svg xmlns="http://www.w3.org/2000/svg" width="40" height="20" viewBox="0 0 40 20">
    <g fill="none" fill-rule="evenodd">
        <g>
            <g>
                <g>
                    <g>
                        <path fill="#B08D68" d="M31.666 9.627L26 3.573c-.024-.026-.024-.066 0-.092l.402-.429c.025-.027.067-.028.094-.003l.003.003L33 9.999l-6.5 6.949c-.025.027-.067.028-.094.003l-.003-.003-.402-.43c-.024-.025-.024-.065 0-.09l5.665-6.056h-28.6c-.036 0-.066-.03-.066-.066v-.612c0-.037.03-.067.067-.067h28.599z" transform="translate(-1250 -892) translate(0 862) translate(82) translate(1168 30) matrix(-1 0 0 1 36 0)"/>
                    </g>
                </g>
            </g>
        </g>
    </g>
</svg>
